<?xml version="1.0" encoding="iso-8859-1"?>
<!-- Generator: Adobe Illustrator 16.0.0, SVG Export Plug-In . SVG Version: 6.00 Build 0)  -->
<!DOCTYPE svg PUBLIC "-//W3C//DTD SVG 1.1//EN" "http://www.w3.org/Graphics/SVG/1.1/DTD/svg11.dtd">
<svg version="1.1" id="Layer_2" xmlns="http://www.w3.org/2000/svg" xmlns:xlink="http://www.w3.org/1999/xlink" x="0px" y="0px"
	 width="512px" height="512px" viewBox="0 0 512 512" style="enable-background:new 0 0 512 512;" xml:space="preserve">
<path d="M478.513,38.849l-67.495,14.254l-2.343-6.211c-1.791-4.745-6.272-8.768-11.343-8.911l-37.073-0.017
	c-1.402,0.007-2.446,0.068-3.676,0.363l-61.394,14.499l-2.238-5.933c-1.79-4.746-6.271-8.773-11.343-8.917
	c0,0-36.679-0.032-36.807-0.028c-1.536,0.008-2.556,0.051-3.804,0.371L182.173,53.24l-5.912-8.868
	c-2.928-4.559-11.345-9.768-21.182-3.791L21.604,137.633c-3.385,2.556-6.145,5.118-6.145,12.063v309.497
	c0,3.316,1.317,6.496,3.663,8.841l2.416,2.415c2.344,2.343,5.522,3.659,8.837,3.659H351.67c4.706,0,8.247-2.721,9.047-3.331
	l129.637-98.902c5.98-4.458,6.145-9.923,6.146-11.843l0.041-306.508C496.541,48.353,495.042,35.49,478.513,38.849z M119.865,150.927
	v298.182H40.459V154.834l120.827-87.855l5.002,7.503c2.944,4.417,8.357,6.491,13.501,5.176l34.716-8.889l-89.844,70.314
	C121.634,143.452,119.865,147.083,119.865,150.927z M225.861,150.927v298.182h-80.996V157.017l119.547-93.682l8.108,0.005
	l3.167,8.62c2.224,5.893,8.479,9.214,14.605,7.744l27.067-6.479l-86.703,67.857C227.63,143.452,225.861,147.083,225.861,150.927z
	 M345.967,154.934c-2.78,2.375-4.382,5.849-4.382,9.505v284.67h-90.724V157.017l119.842-93.947l17.542-0.056l3.17,8.948
	c2.178,5.772,8.243,9.088,14.277,7.816l37.549-7.93L345.967,154.934z M471.251,355.022l-104.666,79.833V170.201l104.928-89.622
	L471.251,355.022z"/>
</svg>
